<svg xmlns="http://www.w3.org/2000/svg" viewBox="742.49 545.27 515.02 309.47">
<path transform="matrix(1,0,0,-1,1029.8301,658.4111)" d="M0 0C-23.313 0-42.213 18.899-42.213 42.212-42.213 48.802-40.701 55.038-38.008 60.595H-89.517-94.509C-95.036 58.083-95.419 55.519-95.659 52.913-95.851 50.837-95.962 48.738-95.962 46.612-95.962 9.197-65.631-21.134-28.216-21.134-2.885-21.134 19.184-7.222 30.807 13.369 23.104 5.146 12.156 0 0 0" fill="#297cf5"/>
<path transform="matrix(1,0,0,-1,1002.0454,545.2686)" d="M0 0C-.042 0-.083 .003-.125 .003-.349 .003-.57-.011-.794-.014-1.405-.02-2.013-.035-2.62-.06-3.082-.078-3.542-.103-4.001-.131-4.606-.169-5.209-.213-5.81-.268-6.05-.289-6.291-.307-6.53-.331-29.221-2.563-48.621-15.993-59.14-35.02-57.245-33.235-55.171-31.64-52.953-30.255-48.365-27.391-43.149-25.439-37.555-24.664-35.77-24.416-33.949-24.282-32.096-24.282-18.487-24.282-6.488-31.17 .605-41.65 3.306-45.639 5.285-50.151 6.382-54.999 7.019-57.813 7.366-60.737 7.366-63.744 7.366-70.223 5.794-76.332 3.027-81.725H57.348C59.72-75.229 61.017-68.218 61.017-60.905 61.017-27.308 33.71-.067 0 0" fill="#297cf5"/>
<path transform="matrix(1,0,0,-1,755.0847,763.147)" d="M0 0H40.672C38.117 8.819 29.967 15.284 20.336 15.284 10.704 15.284 2.555 8.819 0 0M20.336-38.816C2.176-38.816-12.597-24.042-12.597-5.883-12.597 12.276 2.176 27.05 20.336 27.05 38.495 27.05 53.269 12.276 53.269-5.883V-11.766H0C2.555-20.585 10.704-27.05 20.336-27.05 25.711-27.05 30.835-25.033 34.765-21.37L42.788-29.977C36.672-35.677 28.699-38.816 20.336-38.816" fill="#cdcdcd"/>
<path transform="matrix(1,0,0,-1,1053.6358,763.147)" d="M0 0H40.672C38.117 8.819 29.967 15.284 20.336 15.284 10.705 15.284 2.555 8.819 0 0M20.336-38.816C2.177-38.816-12.597-24.042-12.597-5.883-12.597 12.276 2.177 27.05 20.336 27.05 38.496 27.05 53.269 12.276 53.269-5.883V-11.766H0C2.555-20.585 10.705-27.05 20.336-27.05 25.712-27.05 30.836-25.033 34.765-21.37L42.788-29.976C36.674-35.677 28.7-38.816 20.336-38.816" fill="#cdcdcd"/>
<path transform="matrix(1,0,0,-1,847.5054,790.1973)" d="M0 0C-11.672 0-21.167 9.496-21.167 21.167H-32.933C-32.933 3.008-18.159-11.766 0-11.766 8.364-11.766 16.338-8.626 22.452-2.926L14.429 5.68C10.5 2.017 5.376 0 0 0" fill="#cdcdcd"/>
<path transform="matrix(1,0,0,-1,847.5054,747.8589)" d="M0 0C5.376 0 10.5-2.017 14.429-5.68L22.452 2.926C16.338 8.626 8.364 11.766 0 11.766-18.159 11.766-32.933-3.008-32.933-21.167H-21.167C-21.167-9.496-11.672 0 0 0" fill="#cdcdcd"/>
<path transform="matrix(1,0,0,-1,988.5972,790.1973)" d="M0 0C-11.672 0-21.168 9.496-21.168 21.167H-32.934C-32.934 3.008-18.16-11.766 0-11.766 8.363-11.766 16.336-8.626 22.452-2.926L14.429 5.68C10.5 2.017 5.375 0 0 0" fill="#cdcdcd"/>
<path transform="matrix(1,0,0,-1,988.5972,747.8589)" d="M0 0C5.375 0 10.5-2.017 14.429-5.68L22.452 2.926C16.336 8.626 8.363 11.766 0 11.766-18.16 11.766-32.934-3.008-32.934-21.167H-21.168C-21.168-9.496-11.672 0 0 0" fill="#cdcdcd"/>
<path transform="matrix(1,0,0,-1,904.8591,747.8301)" d="M0 0C-11.728 0-21.269-9.541-21.269-21.269-21.269-32.997-11.728-42.538 0-42.538 11.728-42.538 21.269-32.997 21.269-21.269 21.269-9.541 11.728 0 0 0M0-54.304C-18.216-54.304-33.035-39.484-33.035-21.269-33.035-3.053-18.216 11.766 0 11.766 18.216 11.766 33.035-3.053 33.035-21.269 33.035-39.484 18.216-54.304 0-54.304" fill="#cdcdcd"/>
<path transform="matrix(1,0,0,-1,0,1400)" d="M1031.848 598.729H1020.08206V685.072H1031.848Z" fill="#cdcdcd"/>
<path transform="matrix(1,0,0,-1,1147.1821,790.3682)" d="M0 0C-11.728 0-21.269 9.541-21.269 21.269-21.269 32.997-11.728 42.538 0 42.538 11.728 42.538 21.269 32.997 21.269 21.269 21.269 9.541 11.728 0 0 0M33.032 21.186C33.032 21.214 33.034 21.241 33.034 21.269 33.034 39.485 18.215 54.304 0 54.304-18.215 54.304-33.035 39.485-33.035 21.269-33.035 3.054-18.215-11.766 0-11.766 8.163-11.766 15.638-8.783 21.409-3.858V-10.903H33.175V21.186Z" fill="#cdcdcd"/>
<path transform="matrix(1,0,0,-1,1224.4776,736.0645)" d="M0 0C-8.163 0-15.639-2.982-21.41-7.907V-1.384H-33.175V-65.207H-21.41V-33.035H-21.269C-21.269-21.307-11.728-11.766 0-11.766 11.728-11.766 21.269-21.307 21.269-33.035V-65.207H33.035V-33.035C33.035-14.819 18.215 0 0 0" fill="#cdcdcd"/>
<path transform="matrix(1,0,0,-1,906.075,827.6699)" d="M0 0C-.158 .552 .158 .946 .711 .946H2.367C2.683 .946 2.999 .67 3.078 .395L8.562-20.042H8.719L15.308 .907C15.387 1.144 15.624 1.341 15.979 1.341H16.688C17.004 1.341 17.281 1.144 17.36 .907L24.066-20.042H24.224L29.59 .395C29.669 .67 29.985 .946 30.299 .946H31.957C32.51 .946 32.824 .552 32.667 0L25.21-26.512C25.131-26.828 24.816-27.065 24.5-27.065H23.869C23.593-27.065 23.317-26.868 23.198-26.631L16.373-5.287H16.176L9.469-26.631C9.351-26.868 9.074-27.065 8.798-27.065H8.167C7.851-27.065 7.535-26.828 7.456-26.512Z" fill="#bbbdbf"/>
<path transform="matrix(1,0,0,-1,948.4048,827.4727)" d="M0 0C0 .394 .354 .749 .749 .749H2.328C2.722 .749 3.077 .394 3.077 0V-26.118C3.077-26.512 2.722-26.868 2.328-26.868H.749C.354-26.868 0-26.512 0-26.118Z" fill="#bbbdbf"/>
<path transform="matrix(1,0,0,-1,968.6416,829.3672)" d="M0 0H-6.864C-7.298 0-7.614 .355-7.614 .75V1.895C-7.614 2.288-7.298 2.644-6.864 2.644H9.864C10.297 2.644 10.613 2.288 10.613 1.895V.75C10.613 .355 10.297 0 9.864 0H2.999V-24.224C2.999-24.618 2.644-24.973 2.25-24.973H.75C.355-24.973 0-24.618 0-24.224Z" fill="#bbbdbf"/>
<path transform="matrix(1,0,0,-1,988.7998,827.4727)" d="M0 0C0 .394 .355 .749 .75 .749H2.288C2.722 .749 3.038 .394 3.038 0V-11.521H19.056V0C19.056 .394 19.371 .749 19.806 .749H21.345C21.738 .749 22.094 .394 22.094 0V-26.118C22.094-26.512 21.738-26.868 21.345-26.868H19.806C19.371-26.868 19.056-26.512 19.056-26.118V-14.164H3.038V-26.118C3.038-26.512 2.722-26.868 2.288-26.868H.75C.355-26.868 0-26.512 0-26.118Z" fill="#bbbdbf"/>
<path transform="matrix(1,0,0,-1,1037.126,827.4727)" d="M0 0C0 .394 .355 .749 .75 .749H2.249C2.683 .749 2.999 .394 2.999 0V-16.61C2.999-21.108 5.8-24.461 10.416-24.461 15.071-24.461 17.912-21.187 17.912-16.688V0C17.912 .394 18.228 .749 18.661 .749H20.16C20.555 .749 20.91 .394 20.91 0V-16.847C20.91-22.843 16.649-27.262 10.416-27.262 4.222-27.262 0-22.843 0-16.847Z" fill="#bbbdbf"/>
<path transform="matrix(1,0,0,-1,1068.5264,850.1973)" d="M0 0 .593 .749C.986 1.262 1.302 1.46 1.855 .986 2.131 .749 5.129-1.895 8.64-1.895 11.836-1.895 13.927 .119 13.927 2.604 13.927 5.326 11.56 6.903 7.023 8.837 2.683 10.691 .079 12.348 .079 16.845 .079 19.528 2.209 23.869 8.482 23.869 12.349 23.869 15.229 21.856 15.229 21.856 15.466 21.737 15.9 21.265 15.466 20.515L15.071 19.844C14.756 19.292 14.322 19.292 13.69 19.647 12.034 20.633 10.653 21.225 8.444 21.225 4.262 21.225 2.999 18.542 2.999 16.885 2.999 14.084 5.011 12.862 8.325 11.481 13.65 9.31 17.083 7.298 17.083 2.722 17.083-1.381 13.178-4.538 8.561-4.538 3.906-4.538 .75-1.815 .237-1.341-.079-1.065-.551-.711 0 0" fill="#bbbdbf"/>
</svg>