<?xml version="1.0" encoding="UTF-8" standalone="no"?>
<!-- Created with Inkscape (http://www.inkscape.org/) -->

<svg
   xmlns:dc="http://purl.org/dc/elements/1.1/"
   xmlns:cc="http://creativecommons.org/ns#"
   xmlns:rdf="http://www.w3.org/1999/02/22-rdf-syntax-ns#"
   xmlns:svg="http://www.w3.org/2000/svg"
   xmlns="http://www.w3.org/2000/svg"
   xmlns:sodipodi="http://sodipodi.sourceforge.net/DTD/sodipodi-0.dtd"
   xmlns:inkscape="http://www.inkscape.org/namespaces/inkscape"
   width="293.86401"
   height="332.52859"
   id="svg3988"
   version="1.1"
   inkscape:version="0.48.1 "
   sodipodi:docname="New document 1">
  <defs
     id="defs3990" />
  <sodipodi:namedview
     id="base"
     pagecolor="#ffffff"
     bordercolor="#666666"
     borderopacity="1.0"
     inkscape:pageopacity="0.0"
     inkscape:pageshadow="2"
     inkscape:zoom="0.73417969"
     inkscape:cx="195.03659"
     inkscape:cy="240.86924"
     inkscape:document-units="px"
     inkscape:current-layer="layer1"
     showgrid="false"
     fit-margin-top="0"
     fit-margin-left="0"
     fit-margin-right="0"
     fit-margin-bottom="0"
     inkscape:window-width="1366"
     inkscape:window-height="706"
     inkscape:window-x="-8"
     inkscape:window-y="-8"
     inkscape:window-maximized="1" />
  <metadata
     id="metadata3993">
    <rdf:RDF>
      <cc:Work
         rdf:about="">
        <dc:format>image/svg+xml</dc:format>
        <dc:type
           rdf:resource="http://purl.org/dc/dcmitype/StillImage" />
        <dc:title></dc:title>
      </cc:Work>
    </rdf:RDF>
  </metadata>
  <g
     inkscape:label="Layer 1"
     inkscape:groupmode="layer"
     id="layer1"
     transform="translate(-257.60108,-289.51368)">
    <g
       transform="matrix(3.8195804,0,0,3.8195804,5959.0918,-305.16449)"
       id="g5082">
      <path
         inkscape:connector-curvature="0"
         d="m -1492.7008,162.5622 c 25.1387,-9.08625 50.3762,-9.17875 76.9362,-0.16375 l 0,19.025 c -1.6037,33.1675 -17.1075,52.595 -38.4687,61.3275 -22.3475,-10.285 -36.5288,-28.09875 -38.29,-60.51 l -0.1775,-19.67875 z m 1.7062,1.62625 c 24.0238,-8.68375 48.1425,-8.77125 73.5238,-0.1575 l 0,18.1825 c -1.5325,31.69625 -16.3488,50.26125 -36.7625,58.6075 -21.3563,-9.83 -34.9088,-26.85375 -36.5913,-57.8275 l -0.17,-18.805 z"
         style="fill:#231f20;fill-opacity:1;fill-rule:evenodd;stroke:none"
         id="path3920" />
      <path
         inkscape:connector-curvature="0"
         d="m -1490.9947,164.1882 c 24.0237,-8.68375 48.1425,-8.77125 73.5237,-0.15625 l 0,18.18125 c -1.5312,31.69625 -16.3487,50.2625 -36.7612,58.6075 -21.3575,-9.83 -34.9088,-26.8525 -36.5925,-57.8275 l -0.17,-18.805 z"
         style="fill:#d0ae4f;fill-opacity:1;fill-rule:evenodd;stroke:none"
         id="path3924" />
      <path
         inkscape:connector-curvature="0"
         d="m -1486.4228,198.31671 c 3.6237,17.74625 13.9987,30.875 31.7875,38.93 6.3037,-2.78375 11.86,-6.31375 16.5987,-10.66375 l -3.0187,-4.92875 0.8287,-0.17875 -5.8987,-8.80625 7.4362,8.7225 -0.7262,0.11125 2.8787,3.71875 c 1.7375,-1.52 3.1913,-3.11125 4.3338,-4.78125 l -4.865,-3.80125 1.3425,-0.47625 -9.0025,-6.4575 11.3225,5.9275 -1.3413,0.475 4.0813,2.3475 c 1.1175,-1.61375 2.115,-3.325 3.0462,-5.0875 l -5.9537,-2.23625 1.2862,-0.97875 -11.6025,-4.05375 13.9225,2.65625 -1.37,0.9225 4.8925,1.20125 c 0.8088,-1.71 1.5188,-3.46125 2.0688,-5.28375 l -7.1575,-0.72625 1.4262,-1.42625 -14.985,-1.845 17.7813,-0.7825 -1.37,1.3975 5.3112,-0.0563 c 0.6113,-2.1825 1.1025,-4.43375 1.4538,-6.765 l -8.8063,1.78875 2.0688,-2.4875 -18.955,3.8025 22.3662,-7.605 -1.985,2.405 5.9825,-1.92875 0.4475,-5.56375 -8.1912,3.27125 1.7612,-3.075 -21.22,9.98 -0.53,-2.23625 -3.1037,5.75875 1.985,4.38875 4.78,1.31375 -1.4538,0.0838 0.8113,3.10375 -9.365,5.955 -10.4563,-7.85625 1.175,-2.54375 -2.2375,-1.00625 6.1513,1.28625 0.6987,0.0275 0.5025,-0.3075 -8.3862,-3.88625 -2.2925,0.41875 2.4037,-1.03375 9.4213,4.25 1.51,3.13 1.2025,-4.10875 -1.4263,-3.55125 -3.3825,-2.71125 -2.6837,-0.195 1.985,-0.47625 -0.6713,-4.585 -5.535,-6.7375 -0.1125,0.95125 -9.785,0.755 0.9238,0.67125 -7.4925,6.205 1.6487,0.14 -4.2612,5.13375 z m 12.48,-5.32875 2.5725,-1.09125 -0.195,-0.75375 5.5912,3.9975 0.6425,0.11125 -0.5037,0.28 -0.475,-0.19625 -0.5025,0.69875 -0.8113,-0.055 0.8113,-0.86625 -0.3913,-0.28 -0.7837,0.6425 -0.81,-0.0275 -0.6713,-0.81 0.2513,-0.50375 0,-0.33625 -0.4425,-0.29125 -0.21,0 -0.6438,0.6025 0,0.85 -0.6075,-0.955 0.4513,-0.84875 -0.6713,-0.55875 -2.6012,0.39125 z"
         style="fill:#231f20;fill-opacity:1;fill-rule:evenodd;stroke:none"
         id="path3928" />
      <path
         inkscape:connector-curvature="0"
         d="m -1486.8858,196.0907 c -1.4688,-8.69 -1.8488,-18.66875 -1.6775,-29.2975 22.3437,-7.0775 45.0137,-7.68375 68.1025,0 0.1687,4.68125 0.2037,9.38875 0,14.145 l -4.4738,2.5725 1.0063,-2.46 -23.875,13.13875 -1.0063,-3.80125 -4.5287,9.16875 2.1812,5.14375 3.2988,0.56 0.67,2.6275 -8.2188,4.80875 -9.3937,-6.43 0.895,-2.0125 3.9137,0.95 1.175,-0.55875 2.1238,3.97 2.0687,-5.9825 -1.7325,-4.1375 -3.8025,-2.96375 -0.7825,-5.9825 -0.5037,0.67 -6.3738,-7.66 -0.3912,2.07 -11.7975,0.67 2.2925,1.3975 -8.835,6.99 2.125,0.22375 -2.46,2.18 z m 58.9325,-26.655 1.0837,3.3575 3.5275,-0.006 -2.8575,2.0675 1.0963,3.35375 -2.85,-2.07875 -2.8513,2.07875 1.0975,-3.35375 -2.8587,-2.0675 3.5287,0.006 1.0838,-3.3575 z m -10.7913,-2.79625 1.0838,3.3575 3.5275,-0.006 -2.8575,2.06875 1.0962,3.35375 -2.85,-2.08 -2.8512,2.08 1.0975,-3.35375 -2.8588,-2.06875 3.5288,0.006 1.0837,-3.3575 z m -10.5125,-1.50875 1.0838,3.3575 3.5287,-0.007 -2.8575,2.06875 1.0963,3.35375 -2.8513,-2.08 -2.85,2.08 1.0975,-3.35375 -2.8587,-2.06875 3.5275,0.007 1.0837,-3.3575 z m -11.35,0 1.0838,3.3575 3.5287,-0.007 -2.8587,2.06875 1.0975,3.35375 -2.8513,-2.08 -2.85,2.08 1.0963,-3.35375 -2.8588,-2.06875 3.5288,0.007 1.0837,-3.3575 z m -10.4,2.12375 1.0838,3.3575 3.5287,-0.006 -2.8587,2.06875 1.0975,3.3525 -2.8513,-2.07875 -2.85,2.07875 1.0963,-3.3525 -2.8575,-2.06875 3.5275,0.006 1.0837,-3.3575 z m -9.72,3.11625 1.0838,3.3575 3.5275,-0.006 -2.8588,2.06875 1.0975,3.35375 -2.85,-2.08 -2.8512,2.08 1.0962,-3.35375 -2.8575,-2.06875 3.5288,0.006 1.0837,-3.3575 z"
         style="fill:#6c713f;fill-opacity:1;fill-rule:evenodd;stroke:none"
         id="path3932" />
    </g>
  </g>
</svg>
